<mxfile host="app.diagrams.net" modified="2023-06-16T03:47:39.194Z" agent="Mozilla/5.0 (Windows NT 10.0; Win64; x64) AppleWebKit/537.36 (KHTML, like Gecko) Chrome/109.0.0.0 Safari/537.36" version="21.3.5" etag="QRgA_M3ANdffrEjO7oih" type="github">
  <diagram name="第 1 页" id="UQDCYLyBeS_srTcuu-f5">
    <mxGraphModel>
      <root>
        <mxCell id="0" />
        <mxCell id="1" parent="0" />
      </root>
    </mxGraphModel>
  </diagram>
</mxfile>
